{"title":"Lex.On.Blondes.5.DVDRip.x264.Iou1","uid":8824731,"size":1559821804,"categoryP":"porn","categoryS":"movies","magnet":"?xt=urn:btih:83e1bc24a7a71a80b83e8270e8f1bfa6c46b0032&amp;dn=Lex.On.Blondes.5.DVDRip.x264.Iou1&amp;tr=udp%3A%2F%2Ftracker.openbittorrent.com%3A80&amp;tr=udp%3A%2F%2Fopen.demonii.com%3A1337&amp;tr=udp%3A%2F%2Ftracker.coppersurfer.tk%3A6969&amp;tr=udp%3A%2F%2Fexodus.desync.com%3A6969","seeders":1,"leechers":0,"uploader":"jaybee211","files":-1,"time":1376815461,"description":"Format                                   : MPEG-4\nFormat profile                           : Base Media / Version 2\nCodec ID                                 : mp42\nFile size                                : 1.45 GiB\nDuration                                 : 2h 55mn\nOverall bit rate mode                    : Variable\nOverall bit rate                         : 1 186 Kbps\n\nVideo\nID                                       : 1\nFormat                                   : AVC\nFormat/Info                              : Advanced Video Codec\nFormat profile                           : &lt;a class=&quot;__cf_email__&quot; href=&quot;/cdn-cgi/l/email-protection&quot; data-cfemail=&quot;440c2d232c0408776a74&quot;&gt;[email&amp;#160;protected]&lt;/a&gt;&lt;script cf-hash='f9e31' type=&quot;text/javascript&quot;&gt;\n/* &lt;![CDATA[ */!function(){try{var t=&quot;currentScript&quot;in document?document.currentScript:function(){for(var t=document.getElementsByTagName(&quot;script&quot;),e=t.length;e--;)if(t[e].getAttribute(&quot;cf-hash&quot;))return t[e]}();if(t&amp;&amp;t.previousSibling){var e,r,n,i,c=t.previousSibling,a=c.getAttribute(&quot;data-cfemail&quot;);if(a){for(e=&quot;&quot;,r=parseInt(a.substr(0,2),16),n=2;a.length-n;n+=2)i=parseInt(a.substr(n,2),16)^r,e+=String.fromCharCode(i);e=document.createTextNode(e),c.parentNode.replaceChild(e,c)}}}catch(u){}}();/* ]]&gt; */&lt;/script&gt;\nFormat settings, CABAC                   : Yes\nFormat settings, ReFrames                : 4 frames\nCodec ID                                 : avc1\nCodec ID/Info                            : Advanced Video Coding\nDuration                                 : 2h 55mn\nBit rate mode                            : Variable\nBit rate                                 : 1 119 Kbps\nMaximum bit rate                         : 5 587 Kbps\nWidth                                    : 720 pixels\nHeight                                   : 404 pixels\nDisplay aspect ratio                     : 16:9\nFrame rate mode                          : Constant\nFrame rate                               : 29.970 fps\nStandard                                 : NTSC\nColor space                              : YUV\nChroma subsampling                       : 4:2:0\nBit depth                                : 8 bits\nScan type                                : Progressive\nBits/(Pixel*Frame)                       : 0.128\nStream size                              : 1.37 GiB (94%)\n\nAudio\nID                                       : 2\nFormat                                   : AAC\nFormat/Info                              : Advanced Audio Codec\nFormat profile                           : LC\nCodec ID                                 : 40\nDuration                                 : 2h 55mn\nBit rate mode                            : Variable\nBit rate                                 : 61.9 Kbps\nMaximum bit rate                         : 70.0 Kbps\nChannel(s)                               : 2 channels\nChannel positions                        : Front: L R\nSampling rate                            : 48.0 KHz\nCompression mode                         : Lossy\nStream size                              : 77.7 MiB (5%)\nLanguage                                 : English\n\nScreens. &lt;a href=&quot; http://bayimg.com/CAodeaaEJ&quot; rel=&quot;nofollow&quot; target=&quot;_NEW&quot;&gt; http://bayimg.com/CAodeaaEJ&lt;/a&gt;\n\nCovers. &lt;a href=&quot; http://bayimg.com/CaODFaaeJ&quot; rel=&quot;nofollow&quot; target=&quot;_NEW&quot;&gt; http://bayimg.com/CaODFaaeJ&lt;/a&gt;\n\n        &lt;a href=&quot; http://bayimg.com/CAOdGaaej&quot; rel=&quot;nofollow&quot; target=&quot;_NEW&quot;&gt; http://bayimg.com/CAOdGaaej&lt;/a&gt;\n\nEnjoy.","torrent":{"xt":"urn:btih:83e1bc24a7a71a80b83e8270e8f1bfa6c46b0032","amp;dn":"Lex.On.Blondes.5.DVDRip.x264.Iou1","amp;tr":["udp%3A%2F%2Ftracker.openbittorrent.com%3A80","udp%3A%2F%2Fopen.demonii.com%3A1337","udp%3A%2F%2Ftracker.coppersurfer.tk%3A6969","udp%3A%2F%2Fexodus.desync.com%3A6969"],"infoHash":"83e1bc24a7a71a80b83e8270e8f1bfa6c46b0032","infoHashBuffer":{"type":"Buffer","data":[131,225,188,36,167,167,26,128,184,62,130,112,232,241,191,166,196,107,0,50]},"announce":[],"urlList":[]}}